<svg width="128" height="128" viewBox="0 0 128 128" fill="none" xmlns="http://www.w3.org/2000/svg">
<rect width="128" height="128" rx="48" fill="url(#paint0_linear_103_10)"/>
<path d="M49.6 96.8H92.8C94.7096 96.8 96.5409 96.0414 97.8912 94.6912C99.2414 93.3409 100 91.5096 100 89.6V82.4H56.8V89.6C56.8 91.5096 56.0414 93.3409 54.6912 94.6912C53.3409 96.0414 51.5096 96.8 49.6 96.8ZM49.6 96.8C47.6904 96.8 45.8591 96.0414 44.5088 94.6912C43.1586 93.3409 42.4 91.5096 42.4 89.6V39.2C42.4 37.2904 41.6414 35.4591 40.2912 34.1088C38.9409 32.7586 37.1096 32 35.2 32M35.2 32C33.2904 32 31.4591 32.7586 30.1088 34.1088C28.7586 35.4591 28 37.2904 28 39.2V50H42.4M35.2 32H82C83.9096 32 85.7409 32.7586 87.0912 34.1088C88.4414 35.4591 89.2 37.2904 89.2 39.2V82.4M74.8 50H56.8M74.8 64.4H56.8" stroke="black" stroke-width="7.2" stroke-linecap="round" stroke-linejoin="round"/>
<defs>
<linearGradient id="paint0_linear_103_10" x1="-1.5" y1="2" x2="128" y2="128" gradientUnits="userSpaceOnUse">
<stop stop-color="#99CEFF"/>
<stop offset="1" stop-color="#1991FF"/>
</linearGradient>
</defs>
</svg>
